<?xml version="1.0" encoding="UTF-8" standalone="no"?> <svg xmlns="http://www.w3.org/2000/svg" viewBox="0 0 32 32"><defs><style>.cls-1{fill:#9dcbf4;}.cls-2{fill:#389ad6;}.cls-3{fill:#2a5080;}</style></defs><title>coffee grinder</title><g id="coffee_grinder" data-name="coffee grinder"><path class="cls-1" d="M22.54,4.83l-.61,2.43L20.25,14H12a5.91,5.91,0,0,1-3-.79,5.08,5.08,0,0,1-.9-.64h0a5.93,5.93,0,0,1-2-3.5l-.3-1.65C8.94,4.36,17.68,4.51,21.92,4.79Z"/><path class="cls-1" d="M21,29H9c1-3.1.9-7.8,2.76-10.76,1.18-1.88,4.36-2.08,7.22-1.8l1,.11V24Z"/><path class="cls-2" d="M21,29H13.79c4.33-3.46,5.11-9.74,5.22-12.56l1,.11V24Z"/><path class="cls-2" d="M22.54,4.83l-.61,2.43L20.25,14H12a5.91,5.91,0,0,1-3-.79,5.08,5.08,0,0,1-.9-.64,22.38,22.38,0,0,1,2.3.4c6.89,1.51,10.08-4.08,11.48-8.18Z"/><path class="cls-3" d="M25,13H12A5,5,0,0,1,7.09,8.89L6.2,4H21.72L20,10.76a1,1,0,0,0,1.94.48l2-8a1,1,0,0,0-.18-.86A1,1,0,0,0,23,2H5a1,1,0,0,0-.77.36A1,1,0,0,0,4,3.18l1.1,6.07A7,7,0,0,0,12,15H25a1,1,0,0,1,1,1v2h-.5A2.5,2.5,0,1,0,28,20.5V16A3,3,0,0,0,25,13Zm1,7.5a.5.5,0,1,1-.5-.5H26Z"/><path class="cls-3" d="M21,17a1,1,0,0,0-2,0v6H9V16a1,1,0,0,0-2,0v7.9L6,28.8A1,1,0,0,0,6.8,30L7,30a1,1,0,0,0,1-.8L8.82,25H19.18l.6,3H10a1,1,0,0,0,0,2H21a1,1,0,0,0,.77-.37A1,1,0,0,0,22,28.8l-1-4.9Z"/><path class="cls-3" d="M12,19h4a1,1,0,0,0,0-2H12a1,1,0,0,0,0,2Z"/><path class="cls-3" d="M12,22h4a1,1,0,0,0,0-2H12a1,1,0,0,0,0,2Z"/></g></svg>