<svg viewBox="0 0 32 32">
  <g id="coffee_drying">
    <path class="cls-1" d="M19,11.33a3,3,0,0,1-6,0,4,4,0,0,1,6,0Z"/>
    <path class="cls-2" d="M16,15a4,4,0,1,1,4-4A4,4,0,0,1,16,15Zm0-6a2,2,0,1,0,2,2A2,2,0,0,0,16,9Z"/>
    <path class="cls-2" d="M16,6a1,1,0,0,1-1-1V3a1,1,0,0,1,2,0V5A1,1,0,0,1,16,6Z"/>
    <path class="cls-2" d="M20.29,7.71a1,1,0,0,1-.7-.3,1,1,0,0,1,0-1.41L21,4.59A1,1,0,0,1,22.41,6L21,7.41A1,1,0,0,1,20.29,7.71Z"/>
    <path class="cls-2" d="M11.71,7.71a1,1,0,0,1-.71-.3L9.59,6A1,1,0,0,1,11,4.59L12.41,6a1,1,0,0,1,0,1.41A1,1,0,0,1,11.71,7.71Z"/>
    <path class="cls-2" d="M24,12H22a1,1,0,0,1,0-2h2a1,1,0,0,1,0,2Z"/>
    <path class="cls-2" d="M10,12H8a1,1,0,0,1,0-2h2a1,1,0,0,1,0,2Z"/>
    <path class="cls-1" d="M15.14,23.79a4.64,4.64,0,0,1-1.32,2.71,4.77,4.77,0,0,1-3.4,1.37,5.77,5.77,0,0,1-4-1.72,5.85,5.85,0,0,1-1.6-2.92,4.7,4.7,0,0,1,1.32-2.71,4.77,4.77,0,0,1,3.38-1.37h.26a5.9,5.9,0,0,1,5.39,4.64Z"/>
    <path class="cls-3" d="M10.42,24.87A7.81,7.81,0,0,1,5,22.57l-.29-.32a5.87,5.87,0,0,0,5.74,5.62A4.67,4.67,0,0,0,15.18,23,6.73,6.73,0,0,1,10.42,24.87Z"/>
    <path class="cls-2" d="M10.51,28.76a6.77,6.77,0,0,1-4.75-2A6.27,6.27,0,0,1,5.4,17.9a6.11,6.11,0,0,1,7.49-.7,1,1,0,0,1-1,1.71,4.12,4.12,0,0,0-5,.41,4.28,4.28,0,0,0,.35,6,4.49,4.49,0,0,0,4.94,1.09,1,1,0,1,1,.83,1.82A5.87,5.87,0,0,1,10.51,28.76Z"/>
    <path class="cls-2" d="M11.77,25.27a1,1,0,0,1-.95-.69l-.35-1.06a.12.12,0,0,0-.15-.07,2.13,2.13,0,0,1-2.68-1.34l-.36-1.06a1,1,0,0,1,.64-1.27,1,1,0,0,1,1.26.64l.35,1.06a.12.12,0,0,0,.15.07,2.13,2.13,0,0,1,2.68,1.34L12.72,24a1,1,0,0,1-.64,1.27A1.12,1.12,0,0,1,11.77,25.27Z"/>
    <path class="cls-1" d="M25.24,26.24A7.48,7.48,0,0,1,20,28.51,5.51,5.51,0,0,1,16.05,27a5.67,5.67,0,0,1-1.45-5.11,11.6,11.6,0,0,1,1-1.2A10.49,10.49,0,0,1,23,17.49a8.75,8.75,0,0,1,3.92.9A6.94,6.94,0,0,1,25.24,26.24Z"/>
    <path class="cls-3" d="M26,23A8.5,8.5,0,0,1,20,25.51a6.53,6.53,0,0,1-4.66-1.85,6.28,6.28,0,0,1-.83-1.05A5.35,5.35,0,0,0,20,28.51a7.72,7.72,0,0,0,7.49-7.63A9.13,9.13,0,0,1,26,23Z"/>
    <path class="cls-2" d="M20,29.51a6.53,6.53,0,0,1-4.66-1.85c-2.73-2.73-2.41-7.49.71-10.61s7.88-3.44,10.61-.71S29.07,23.83,26,27h0A8.5,8.5,0,0,1,20,29.51Zm2-13a6.56,6.56,0,0,0-4.54,2c-2.33,2.34-2.65,5.83-.7,7.78s5.44,1.63,7.78-.7,2.65-5.83.7-7.78A4.5,4.5,0,0,0,22,16.48Zm3.24,9.76h0Z"/>
    <path class="cls-2" d="M18.17,25.83a1,1,0,0,1-.89-.55,1,1,0,0,1,.44-1.35l1.73-.86a1,1,0,0,0,.55-.89v-.36a3,3,0,0,1,1.66-2.68l1.72-.86a1,1,0,0,1,1.34.44,1,1,0,0,1-.44,1.35l-1.73.86a1,1,0,0,0-.55.89v.36a3,3,0,0,1-1.66,2.68l-1.72.86A1,1,0,0,1,18.17,25.83Z"/>
  </g>
</svg>