<svg viewBox="0 0 32 32">
  <g id="best_coffee">
    <path class="cls-1" d="M19,16a5,5,0,0,1,3.35-4.7A8.78,8.78,0,0,0,21.49,8c-3.88-3.65-10.34-3.24-14.56,1a11.76,11.76,0,0,0-3.35,6.55A8.1,8.1,0,0,0,5.84,20a8.36,8.36,0,0,0,5.95,2.38A10.65,10.65,0,0,0,19.2,19.2a7.82,7.82,0,0,0,.55-.6A4.91,4.91,0,0,1,19,16Z"/>
    <path class="cls-2" d="M22.35,11.3A8.78,8.78,0,0,0,21.49,8l-.14-.11A11.1,11.1,0,0,1,20.06,13,5.08,5.08,0,0,1,22.35,11.3Z"/>
    <path class="cls-2" d="M19,16a5.08,5.08,0,0,1,.37-1.88A11.67,11.67,0,0,1,17.9,15.9a11.54,11.54,0,0,1-8.11,3.47A9.42,9.42,0,0,1,4.22,17.6,7.84,7.84,0,0,0,5.84,20a8.36,8.36,0,0,0,5.95,2.38A10.65,10.65,0,0,0,19.2,19.2a7.82,7.82,0,0,0,.55-.6A4.91,4.91,0,0,1,19,16Z"/>
    <path class="cls-3" d="M18.42,20.27A1,1,0,0,0,17,20c-3.48,2.27-7.76,2-10.39-.62a7.34,7.34,0,0,1-2.11-4.47A9.45,9.45,0,0,1,7.34,7.34c3.51-3.51,8.9-3.82,12-.7a6.84,6.84,0,0,1,1.45,2.08,1,1,0,0,0,1.82-.84,9.28,9.28,0,0,0-1.85-2.66c-3.9-3.9-10.56-3.58-14.85.71a11.41,11.41,0,0,0-3.38,9.18,9.34,9.34,0,0,0,2.67,5.67A9.5,9.5,0,0,0,12,23.53a11.25,11.25,0,0,0,6.13-1.88A1,1,0,0,0,18.42,20.27Z"/>
    <path class="cls-3" d="M17.56,7.13,15,8.21a5,5,0,0,0-3,4.6v.38A3,3,0,0,1,10.18,16L7.66,17A1,1,0,0,0,8.05,19a1,1,0,0,0,.39-.08L11,17.79a5,5,0,0,0,3-4.6v-.38a3,3,0,0,1,1.82-2.76L18.34,9a1,1,0,0,0-.78-1.84Z"/>
    <path class="cls-1" d="M29,16a5.29,5.29,0,0,1-.11,1.06,5,5,0,0,1-2.8,3.48A4.88,4.88,0,0,1,24,21a5,5,0,0,1-4.79-3.55A6,6,0,0,1,25,13a5.9,5.9,0,0,1,3.69,1.28A5,5,0,0,1,29,16Z"/>
    <path class="cls-2" d="M28.89,17.06a5,5,0,0,1-2.8,3.48l-3.74-2.3.64-.92,1.67.63,1.45-2.49Z"/>
    <path class="cls-1" d="M29,29l-2.72-1.63L25,26.59,24,26l-2.67,1.6.24-1.08.69-3.12a1,1,0,0,1,1-.78h4.34l.23,1.05Z"/>
    <path class="cls-2" d="M29,29l-2.72-1.63L25,26.59a12.48,12.48,0,0,0,1.92-4h.68l.23,1.05Z"/>
    <path class="cls-3" d="M28.58,22.49a1,1,0,0,0-1.2-.76,1,1,0,0,0-.76,1.19l.9,4-3-1.81a1,1,0,0,0-1,0l-3,1.81,1.2-5.42a6,6,0,1,0-1.79-1.17L18,28.78a1,1,0,0,0,.4,1A.94.94,0,0,0,19,30a1,1,0,0,0,.51-.14L24,27.17l4.49,2.69a1,1,0,0,0,1.09-.05,1,1,0,0,0,.4-1ZM24,12a4,4,0,1,1-4,4A4,4,0,0,1,24,12Z"/>
    <path class="cls-3" d="M24,19a3,3,0,0,0,3-3,1,1,0,0,0-2,0,1,1,0,1,1-1-1,1,1,0,0,0,0-2,3,3,0,0,0,0,6Z"/>
  </g>
</svg>